<?xml version="1.0" encoding="UTF-8"?>
<svg xmlns="http://www.w3.org/2000/svg" id="Layer_1" data-name="Layer 1" viewBox="0 0 24 24">
  <path d="M11.026,23c.306,.36,.641,.695,1.003,1H0S0,2.5,0,2.5C0,1.122,1.122,0,2.5,0H15.5c1.378,0,2.5,1.122,2.5,2.5v6.525c-.166-.01-.331-.025-.5-.025s-.334,.016-.5,.025V2.5c0-.827-.673-1.5-1.5-1.5H2.5c-.827,0-1.5,.673-1.5,1.5V23H11.026Zm-7.026-7h4v-1H4v1ZM14,5H4v1H14v-1Zm-.498,5H4v1H12.028c.454-.382,.947-.718,1.474-1Zm3.498,11h1v-4h-1v4Zm7-3.5c0,3.584-2.916,6.5-6.5,6.5s-6.5-2.916-6.5-6.5,2.916-6.5,6.5-6.5,6.5,2.916,6.5,6.5Zm-1,0c0-3.033-2.467-5.5-5.5-5.5s-5.5,2.467-5.5,5.5,2.467,5.5,5.5,5.5,5.5-2.467,5.5-5.5Zm-5.5-3.5c-.552,0-1,.448-1,1s.448,1,1,1,1-.448,1-1-.448-1-1-1Z"/>
</svg>
